<svg xmlns="http://www.w3.org/2000/svg" viewBox="0 0 263.963 61.859" height="233.797" width="997.655"><path fill="#ee2174" d="M131.981 48.63c9.776 0 17.7-7.925 17.7-17.7 0-9.776-7.924-17.7-17.7-17.7s-17.7 7.924-17.7 17.7c0 9.775 7.925 17.7 17.7 17.7"/><path fill="#fff" d="M120.433 29.848h.356v4.03h-.356v-4.03m1.332 2.574c0 .621.34 1.243 1.022 1.243.684 0 1.023-.622 1.023-1.243 0-.62-.339-1.242-1.023-1.242-.683 0-1.022.621-1.022 1.242zm2.4 0c0 .836-.485 1.542-1.378 1.542-.891 0-1.377-.706-1.377-1.542 0-.836.485-1.541 1.377-1.541.893 0 1.378.705 1.378 1.541m.287-1.456h.395l.915 2.557h.011l.904-2.557h.367l-1.09 2.913h-.379l-1.123-2.913m5.12 1.253c-.017-.536-.35-1.039-.925-1.039-.582 0-.904.508-.96 1.039zm-1.886.3c.006.519.277 1.146.96 1.146.52 0 .802-.306.915-.746h.356c-.153.66-.537 1.045-1.27 1.045-.927 0-1.316-.712-1.316-1.542 0-.768.39-1.541 1.316-1.541.937 0 1.31.818 1.281 1.637h-2.242m4.166-1.552h.378l.746 2.495h.011l.711-2.495h.402l.71 2.495h.012l.745-2.495h.379l-.938 2.913h-.389l-.717-2.45h-.011l-.712 2.45h-.39l-.937-2.913m4.555-1.118h.356v1.62h.011c.13-.35.52-.587.932-.587.819 0 1.067.429 1.067 1.123v1.875h-.356v-1.818c0-.503-.163-.88-.74-.88-.564 0-.903.428-.914.999v1.7h-.356v-4.032m4.985 2.439h-.011c-.046.085-.204.113-.3.13-.604.107-1.355.101-1.355.672 0 .355.316.576.65.576.542 0 1.022-.345 1.015-.915zm-1.897-.43c.033-.682.514-.976 1.18-.976.514 0 1.073.158 1.073.937v1.547c0 .136.067.215.208.215.04 0 .085-.011.113-.023v.3a.958.958 0 0 1-.231.022c-.362 0-.418-.203-.418-.508h-.01c-.25.378-.503.593-1.063.593-.536 0-.977-.265-.977-.853 0-.819.797-.847 1.565-.937.293-.034.457-.074.457-.395 0-.48-.344-.599-.762-.599-.441 0-.769.203-.78.678h-.356m3.613-.892h.593v.299h-.593v1.965c0 .231.034.367.288.384.102 0 .203-.006.305-.017v.305c-.107 0-.209.011-.316.011-.474 0-.638-.158-.632-.655v-1.993h-.509v-.3h.508v-.874h.356v.875m-19.691 5.647h.378l.96 2.484.898-2.484h.356l-1.265 3.36c-.204.49-.322.632-.768.632-.142-.006-.215-.006-.271-.028v-.3c.084.017.164.029.242.029.317 0 .39-.187.508-.458l.125-.333-1.163-2.902m3.234 1.456c0 .622.339 1.243 1.022 1.243s1.022-.621 1.022-1.243c0-.62-.339-1.242-1.022-1.242s-1.022.621-1.022 1.242zm2.4 0c0 .836-.486 1.542-1.378 1.542-.892 0-1.378-.706-1.378-1.542 0-.836.486-1.54 1.378-1.54.892 0 1.378.704 1.378 1.54m2.975 1.457h-.328v-.525h-.011c-.186.39-.57.61-1.005.61-.734 0-1.022-.43-1.022-1.107v-1.892h.355v1.898c.017.525.215.802.78.802.61 0 .875-.576.875-1.17v-1.53h.356v2.914m3.594-.214c.757 0 1.023-.638 1.023-1.243 0-.604-.266-1.242-1.023-1.242-.677 0-.954.638-.954 1.242 0 .605.277 1.243.954 1.243zm1.379.214h-.328v-.553h-.012c-.152.378-.615.638-1.039.638-.886 0-1.31-.717-1.31-1.542 0-.824.424-1.54 1.31-1.54.436 0 .859.22 1.011.637h.012v-1.672h.356v4.032m.97-1.457c0 .622.338 1.243 1.021 1.243.684 0 1.022-.621 1.022-1.243 0-.62-.339-1.242-1.022-1.242s-1.022.621-1.022 1.242zm2.399 0c0 .836-.485 1.542-1.378 1.542-.892 0-1.378-.706-1.378-1.542 0-.836.486-1.54 1.378-1.54.893 0 1.378.704 1.378 1.54"/><path stroke-miterlimit="10" stroke-width=".52916" stroke="#fff" fill="none" d="M134.48 21.04a1.59 1.59 0 0 0-1.138-.477c-.42 0-.816.164-1.117.46-.002 0-.003 0-.005.002l-.24.203-.236-.203c-.002 0-.004 0-.005-.002a1.589 1.589 0 0 0-1.118-.46c-.43 0-.834.17-1.138.477a1.638 1.638 0 0 0-.02 2.272l.003.006 2.516 3.054 2.514-3.054c.002-.001.002-.004.003-.005.604-.635.6-1.648-.02-2.273z"/><path fill="#f89c2c" d="M182.507 48.63c9.776 0 17.7-7.925 17.7-17.7 0-9.776-7.924-17.7-17.7-17.7-9.775 0-17.7 7.924-17.7 17.7 0 9.775 7.925 17.7 17.7 17.7"/><path fill="#fff" d="M171.09 31.86c-.095-.435-.36-.7-.824-.7-.683 0-1.022.62-1.022 1.242 0 .621.34 1.242 1.022 1.242.44 0 .802-.344.847-.83h.356c-.096.7-.553 1.13-1.203 1.13-.892 0-1.377-.706-1.377-1.542 0-.836.485-1.542 1.377-1.542.622 0 1.102.334 1.18 1h-.355m1.168.542c0 .621.338 1.242 1.022 1.242.683 0 1.022-.62 1.022-1.242 0-.621-.339-1.242-1.022-1.242-.684 0-1.022.62-1.022 1.242zm2.4 0c0 .836-.486 1.542-1.378 1.542-.893 0-1.378-.706-1.378-1.542 0-.836.485-1.542 1.378-1.542.892 0 1.377.706 1.377 1.542m.62-2.575h.356v4.032h-.356v-4.032m1.13 0h.355v4.032h-.356v-4.032m2.987 2.44h-.012c-.045.084-.203.112-.299.13-.604.107-1.355.101-1.355.671 0 .356.316.576.65.576.541 0 1.021-.344 1.016-.915zm-1.898-.43c.034-.683.514-.977 1.18-.977.515 0 1.074.159 1.074.938v1.547c0 .136.067.214.208.214.04 0 .085-.01.113-.022v.299a.96.96 0 0 1-.231.023c-.362 0-.418-.203-.418-.508h-.011c-.249.378-.503.592-1.062.592-.536 0-.977-.265-.977-.852 0-.819.796-.847 1.564-.938.294-.033.458-.073.458-.395 0-.48-.345-.598-.763-.598-.44 0-.768.203-.779.677h-.355m4.425-.677c-.756 0-1.022.638-1.022 1.242s.266 1.242 1.022 1.242c.678 0 .955-.638.955-1.242s-.277-1.242-.955-1.242zm-1.378-1.333h.356v1.672h.012c.152-.418.575-.639 1.01-.639.887 0 1.31.717 1.31 1.542 0 .824-.423 1.542-1.31 1.542-.468 0-.875-.243-1.039-.639h-.011v.554h-.328v-4.032m3.534 2.575c0 .621.339 1.242 1.022 1.242.684 0 1.022-.62 1.022-1.242 0-.621-.338-1.242-1.022-1.242-.683 0-1.022.62-1.022 1.242zm2.4 0c0 .836-.486 1.542-1.378 1.542-.892 0-1.378-.706-1.378-1.542 0-.836.486-1.542 1.378-1.542.892 0 1.378.706 1.378 1.542m.614-1.457h.328v.684h.011c.18-.469.576-.746 1.101-.723v.356c-.643-.035-1.084.44-1.084 1.044v1.553h-.356v-2.914m3.726 1.321h-.01c-.046.085-.204.113-.3.13-.604.108-1.356.102-1.356.672 0 .356.317.576.65.576.542 0 1.022-.344 1.016-.915zm-1.897-.429c.034-.683.514-.977 1.18-.977.514 0 1.073.159 1.073.938v1.547c0 .136.068.214.209.214.04 0 .085-.01.113-.022v.299a.96.96 0 0 1-.232.023c-.361 0-.418-.203-.418-.508h-.01c-.25.378-.503.592-1.063.592-.536 0-.976-.265-.976-.852 0-.819.796-.847 1.564-.938.293-.033.457-.073.457-.395 0-.48-.344-.598-.762-.598-.44 0-.768.203-.78.677h-.355m3.613-.892h.593v.3h-.593v1.964c0 .232.033.367.287.385.102 0 .204-.006.306-.018v.305c-.108 0-.21.012-.316.012-.475 0-.639-.159-.633-.655v-1.994h-.508v-.299h.508v-.875h.356v.875m3.285 1.253c-.017-.536-.35-1.038-.926-1.038-.581 0-.903.508-.96 1.039zm-1.886.3c.005.52.277 1.146.96 1.146.52 0 .802-.305.915-.745h.356c-.153.66-.537 1.045-1.271 1.045-.926 0-1.316-.712-1.316-1.542 0-.768.39-1.542 1.316-1.542.938 0 1.31.82 1.282 1.638h-2.242m-17.492 5.01c-.097-.436-.362-.701-.825-.701-.683 0-1.022.621-1.022 1.242s.339 1.242 1.022 1.242c.44 0 .802-.344.847-.83h.356c-.096.7-.554 1.13-1.203 1.13-.892 0-1.378-.706-1.378-1.542 0-.836.486-1.541 1.378-1.541.621 0 1.101.333 1.18 1h-.355m.964-2.034h.356v4.032h-.356v-4.032m1.332 2.575c0 .621.339 1.242 1.022 1.242s1.022-.62 1.022-1.242c0-.621-.338-1.242-1.022-1.242-.683 0-1.022.621-1.022 1.242zm2.4 0c0 .836-.486 1.542-1.378 1.542-.892 0-1.378-.706-1.378-1.542 0-.836.486-1.541 1.378-1.541.892 0 1.378.705 1.378 1.541m2.359-.604c-.017-.44-.355-.638-.763-.638-.316 0-.688.124-.688.502 0 .317.361.43.604.492l.474.107c.407.062.83.3.83.807 0 .633-.626.876-1.169.876-.677 0-1.14-.317-1.197-1.028h.356c.028.48.384.728.858.728.334 0 .797-.146.797-.553 0-.339-.317-.451-.638-.53l-.458-.102c-.463-.125-.813-.282-.813-.78 0-.592.582-.818 1.095-.818.582 0 1.045.305 1.068.937h-.356m3.15.4c-.017-.536-.35-1.038-.927-1.038-.581 0-.903.508-.96 1.039zm-1.886.3c.005.52.276 1.146.96 1.146.52 0 .801-.304.915-.745h.355c-.152.66-.536 1.045-1.27 1.045-.927 0-1.316-.712-1.316-1.542 0-.768.39-1.541 1.315-1.541.938 0 1.31.818 1.282 1.637h-2.241m2.81-2.671h.356v4.032h-.355v-4.032m.795 1.118h.379l.96 2.485.897-2.485h.356l-1.265 3.36c-.203.491-.322.633-.768.633-.14-.006-.214-.006-.27-.029v-.299c.084.017.163.028.242.028.316 0 .39-.186.508-.457l.124-.333-1.163-2.903m-3.293-15.83s-.793.451-1.023.417c-.23-.034-1.391-.512-1.697-.512-.306 0-.903.205-.903.205s-.954.409-1.133.52c-.18.11-.256.17-.247.272.008.103.153.418.545.529.392.11.605.051.801.034.196-.017.537-.162.537-.162s.188-.12.35.017c.162.137 1.38 1.228 1.696 1.45.315.221 1.022.8 1.202.886.178.085.323.179.605 0 .281-.18 1.125-1.5 1.125-1.5s-.162-.819-.69-1.458c-.53-.64-1.168-.699-1.168-.699"/><path fill="#fff" d="M185.43 20.471s1.586.239 1.799 2.2l.614-.538s-.12-1.56-1.773-2.054l-.64.392m-5.3.58s-.743-.35-1.109-.384c-.366-.034-.23-.05-.452.043-.222.094-.562.35-.826.665-.265.315-.623.895-.674 1.159-.05.264-.093.469-.077.63.018.163.188.342.188.342s.653.835 1.379 1.193l.36-.35s-1.245-.86-1.415-1.244c0 0-.087-.56.534-1.303.556-.661.83-.666.83-.666s.494.094.81.239l.451-.324m-1.048 3.605s.323-.187.52 0c.196.188.161.375.161.375s.214-.381.589-.204c.375.179.187.545.187.545s.307-.11.469.12c.162.23 0 .579 0 .579s.256-.145.443.103c.187.247 0 .52 0 .52s-.2.263-.292.305c-.094.043-.238.151-.51.02-.274-.131-.331-.326-.331-.326s-.18.056-.38-.124-.14-.31-.14-.31-.183.135-.48-.09c-.29-.22-.17-.41-.17-.41s-.29.111-.535-.2c-.245-.31.469-.903.469-.903m3.23 2.723c-.371 0-.598-.31-.608-.325a.182.182 0 0 1 .295-.211c.003.005.143.189.34.173.277-.023.32-.11.34-.148l.013-.027c.063-.123.088-.193.052-.236-.061-.074-.406-.413-.76-.755l-.464-.448a.181.181 0 0 1 .252-.261l.468.452 1.04 1.002c.075.05.317.178.426.077.149-.14.193-.3.118-.416l-1.838-1.661a.181.181 0 0 1 .243-.27l1.841 1.661a.175.175 0 0 1 .02.02l.004.006.234.212a.426.426 0 0 0 .356-.13c.092-.102.134-.197.128-.29-.008-.116-.094-.243-.253-.378l-2.074-1.748a.181.181 0 1 1 .234-.277l2.44 2.057c.093-.013.207-.047.247-.1.099-.132.128-.223.032-.388a.181.181 0 1 1 .312-.184c.212.36.07.623-.054.789-.136.182-.395.232-.521.246 0 .178-.074.352-.222.516-.301.335-.73.238-.748.234a.114.114 0 0 1-.012-.003.857.857 0 0 1-.24.369c-.276.256-.68.095-.884-.047-.018.045-.038.085-.054.115l-.012.025c-.105.21-.306.32-.634.346a.68.68 0 0 1-.056.003"/><g><path fill="#424ea9" d="M81.455 48.63c9.776 0 17.7-7.925 17.7-17.7 0-9.776-7.924-17.7-17.7-17.7s-17.7 7.924-17.7 17.7c0 9.775 7.925 17.7 17.7 17.7"/><path fill="#fff" d="M74.15 33.396c.756 0 1.021-.638 1.021-1.242 0-.605-.265-1.242-1.022-1.242-.677 0-.954.637-.954 1.242 0 .604.277 1.242.954 1.242zm1.377.215H75.2v-.553h-.011c-.153.378-.616.637-1.04.637-.886 0-1.31-.717-1.31-1.541s.424-1.541 1.31-1.541c.435 0 .859.22 1.011.637h.011v-1.67h.356v4.03m2.624-1.591h-.01c-.046.084-.204.113-.3.13-.604.107-1.355.101-1.355.671 0 .356.316.576.65.576.541 0 1.02-.344 1.015-.914zm-1.897-.43c.034-.683.514-.976 1.18-.976.514 0 1.073.158 1.073.936v1.548c0 .135.068.214.21.214a.33.33 0 0 0 .112-.022v.3a.96.96 0 0 1-.232.022c-.361 0-.417-.203-.417-.508h-.012c-.248.378-.502.592-1.061.592-.537 0-.977-.265-.977-.852 0-.819.796-.847 1.564-.937.294-.034.458-.074.458-.396 0-.48-.345-.598-.763-.598-.44 0-.768.203-.78.677h-.355m3.048-.892h.328v.683h.011c.18-.468.576-.745 1.101-.722v.355c-.644-.033-1.084.44-1.084 1.045v1.553h-.356v-2.914m3.857 1.254c-.017-.537-.35-1.04-.926-1.04-.582 0-.904.509-.96 1.04zm-1.886.3c.005.518.276 1.145.96 1.145.519 0 .802-.305.914-.745h.356c-.152.66-.536 1.044-1.27 1.044-.926 0-1.316-.711-1.316-1.541 0-.768.39-1.541 1.316-1.541.937 0 1.31.818 1.281 1.637h-2.241m5.023-1.553h.594v.3h-.594v1.964c0 .232.035.367.288.384.102 0 .204-.005.306-.017v.306c-.108 0-.21.01-.317.01-.474 0-.638-.158-.632-.654v-1.994h-.509v-.299h.508v-.875h.356v.875m1.4 1.457c0 .621.339 1.242 1.022 1.242s1.022-.621 1.022-1.242-.339-1.242-1.022-1.242-1.022.62-1.022 1.242zm2.4 0c0 .836-.486 1.541-1.378 1.541-.892 0-1.378-.705-1.378-1.541s.486-1.541 1.378-1.541c.892 0 1.378.705 1.378 1.54m-17.813 7.243c.757 0 1.023-.638 1.023-1.242s-.266-1.243-1.023-1.243c-.677 0-.954.639-.954 1.243 0 .604.277 1.242.954 1.242zm1.378 1.293h-.355v-1.631h-.012c-.152.418-.576.637-1.01.637-.887 0-1.31-.717-1.31-1.541s.423-1.541 1.31-1.541c.423 0 .886.26 1.038.637h.012v-.553h.327v3.992m3.121-1.078h-.327v-.525h-.011c-.187.39-.57.61-1.005.61-.735 0-1.022-.43-1.022-1.107v-1.892h.355v1.898c.017.524.215.801.78.801.61 0 .875-.576.875-1.169v-1.53h.355v2.914m2.85-1.66c-.016-.537-.35-1.04-.925-1.04-.582 0-.904.508-.96 1.04zm-1.885.299c.006.52.277 1.146.96 1.146.52 0 .802-.305.915-.745h.355c-.152.66-.536 1.044-1.27 1.044-.926 0-1.316-.711-1.316-1.541 0-.768.39-1.541 1.316-1.541.937 0 1.31.818 1.282 1.637h-2.242m4.55-.7c-.017-.44-.355-.639-.763-.639-.316 0-.688.125-.688.503 0 .316.361.43.604.492l.474.107c.407.062.83.299.83.807 0 .633-.626.875-1.169.875-.677 0-1.14-.316-1.197-1.027h.356c.028.48.384.728.858.728.334 0 .797-.147.797-.553 0-.34-.317-.452-.638-.531l-.458-.102c-.463-.124-.813-.282-.813-.779 0-.593.582-.818 1.095-.818.582 0 1.045.304 1.068.937h-.356m1.62-.853h.593v.3h-.594v1.964c0 .232.034.367.288.385.102 0 .203-.006.305-.018v.306c-.107 0-.209.01-.316.01-.475 0-.639-.158-.632-.654v-1.994h-.509v-.299h.508v-.875h.356v.875m1.197 0h.355v2.914h-.355zm0-1.118h.355v.57h-.355v-.57m1.332 2.575c0 .621.339 1.242 1.022 1.242s1.022-.621 1.022-1.242-.339-1.243-1.022-1.243c-.684 0-1.022.622-1.022 1.243zm2.4 0c0 .836-.486 1.541-1.378 1.541-.892 0-1.378-.705-1.378-1.541s.486-1.541 1.378-1.541c.892 0 1.378.705 1.378 1.54m.608-1.456h.356v.503h.011c.13-.35.52-.588.932-.588.819 0 1.067.43 1.067 1.124v1.875h-.356v-1.818c0-.503-.163-.882-.74-.882-.564 0-.903.43-.914 1v1.7h-.356v-2.914m-8.867-11.643h1.607v1.576h-1.607Zm-1.648-3.377c.031-1.463.993-2.528 2.487-2.528 1.934 0 2.548 1.187 2.548 1.975 0 .993-.42 1.392-.86 1.73-.44.327-.91.593-1.002 1.197v.39h-1.382v-.462c.062-.89.481-1.289.89-1.606.4-.318.747-.553.747-1.105 0-.625-.327-.921-.87-.921-.736 0-1.043.604-1.053 1.33h-1.505"/></g><g><path fill="#59c251" d="M233.034 48.63c9.775 0 17.7-7.925 17.7-17.7 0-9.776-7.925-17.7-17.7-17.7-9.776 0-17.7 7.924-17.7 17.7 0 9.775 7.924 17.7 17.7 17.7"/><path fill="#fff" d="M222.508 32.551c0-.605-.281-1.283-.995-1.283-.72 0-1.02.642-1.02 1.283 0 .624.324 1.23 1.02 1.23.654 0 .995-.6.995-1.23zm.378 1.332c-.006.923-.36 1.487-1.373 1.487-.618 0-1.23-.276-1.283-.936h.377c.085.456.486.618.906.618.696 0 .995-.414.995-1.17v-.42h-.012c-.174.378-.54.637-.983.637-.99 0-1.397-.708-1.397-1.59 0-.851.504-1.559 1.397-1.559.45 0 .833.282.983.624h.012v-.534h.378v2.843m3.035-1.511c-.018-.57-.372-1.104-.984-1.104-.617 0-.96.54-1.02 1.104zm-2.003.317c.006.552.294 1.218 1.02 1.218.55 0 .85-.324.97-.792h.379c-.162.701-.57 1.11-1.35 1.11-.983 0-1.397-.756-1.397-1.638 0-.815.414-1.637 1.397-1.637.996 0 1.391.87 1.362 1.74h-2.381m3.58-1.65h.63v.318h-.63v2.087c0 .246.036.39.306.408.108 0 .216-.006.324-.018v.324c-.114 0-.222.011-.336.011-.504 0-.677-.168-.672-.695v-2.117h-.54v-.318h.54v-.93h.378v.93m3.622 0h.63v.318h-.63v2.087c0 .246.036.39.306.408.108 0 .216-.006.324-.018v.324c-.114 0-.222.011-.336.011-.503 0-.677-.168-.671-.695v-2.117h-.54v-.318h.54v-.93h.377v.93m1.26-1.187h.378v1.721h.012c.137-.372.551-.624.99-.624.869 0 1.133.456 1.133 1.194v1.99h-.378v-1.93c0-.534-.174-.936-.786-.936-.6 0-.96.456-.971 1.062v1.805h-.378v-4.282m3.323 1.187h.377v3.094h-.377zm0-1.187h.377v.606h-.377v-.606m1.187 1.187h.377v.534h.012c.138-.372.552-.624.99-.624.869 0 1.133.456 1.133 1.194v1.99h-.378v-1.93c0-.534-.174-.936-.785-.936-.6 0-.96.456-.971 1.062v1.805h-.379V31.04m5.554 1.511c0-.605-.282-1.283-.996-1.283-.72 0-1.02.642-1.02 1.283 0 .624.325 1.23 1.02 1.23.654 0 .996-.6.996-1.23zm.377 1.332c-.005.923-.36 1.487-1.373 1.487-.617 0-1.229-.276-1.283-.936h.378c.084.456.486.618.905.618.696 0 .996-.414.996-1.17v-.42h-.012c-.174.378-.54.637-.984.637-.99 0-1.397-.708-1.397-1.59 0-.851.504-1.559 1.397-1.559.45 0 .834.282.984.624h.012v-.534h.377v2.843m2.664-1.937c-.018-.468-.378-.678-.81-.678-.336 0-.732.132-.732.534 0 .336.384.455.642.521l.504.114c.431.067.881.318.881.858 0 .672-.665.93-1.241.93-.72 0-1.211-.337-1.271-1.092h.377c.03.51.408.774.912.774.354 0 .845-.156.845-.588 0-.36-.336-.48-.677-.564l-.486-.108c-.492-.132-.863-.3-.863-.827 0-.63.617-.87 1.163-.87.618 0 1.11.324 1.133.996h-.377m-17.52 7.608c.803 0 1.085-.677 1.085-1.32 0-.64-.282-1.319-1.085-1.319-.72 0-1.014.678-1.014 1.32 0 .641.294 1.319 1.014 1.319zm1.463.227h-.348v-.587h-.012c-.162.402-.654.677-1.103.677-.942 0-1.392-.761-1.392-1.637 0-.875.45-1.637 1.392-1.637.461 0 .911.234 1.073.678h.012V35.5h.378v4.282m1.031-1.548c0 .66.36 1.32 1.086 1.32.725 0 1.085-.66 1.085-1.32s-.36-1.319-1.085-1.319c-.726 0-1.086.66-1.086 1.32zm2.549 0c0 .888-.516 1.638-1.463 1.638-.948 0-1.463-.75-1.463-1.638 0-.887.515-1.637 1.463-1.637.947 0 1.463.75 1.463 1.637m.648-1.547h.378v.534h.012c.138-.372.552-.624.99-.624.869 0 1.133.456 1.133 1.194v1.99h-.378v-1.93c0-.534-.174-.936-.786-.936-.6 0-.96.456-.97 1.062v1.805h-.379v-3.095m5.541 1.332c-.018-.57-.372-1.104-.983-1.104-.618 0-.96.54-1.02 1.104zm-2.003.317c.006.552.294 1.218 1.02 1.218.551 0 .851-.324.971-.792h.378c-.162.701-.57 1.11-1.35 1.11-.982 0-1.396-.756-1.396-1.638 0-.815.414-1.637 1.397-1.637.995 0 1.391.87 1.361 1.74h-2.381m-7.07-15.49.363-.364 1.882 1.862 3.188-3.684.389.337-3.557 4.074-2.265-2.224"/><path stroke-miterlimit="10" stroke-width=".35268513999999995" stroke="#fff" fill="none" d="m230.123 22.848.363-.365 1.882 1.862 3.188-3.684.389.337-3.557 4.074z"/></g><g><path fill="#00adef" d="M30.93 48.63c9.775 0 17.7-7.925 17.7-17.7 0-9.776-7.925-17.7-17.7-17.7-9.777 0-17.7 7.924-17.7 17.7 0 9.775 7.924 17.7 17.7 17.7"/><path fill="#fff" d="M22.931 29.867h.356v2.53l1.615-1.412h.474l-1.242 1.079 1.327 1.835h-.446l-1.152-1.587-.576.48V33.9h-.356v-4.032m5.002 2.372c-.017-.537-.35-1.039-.926-1.039-.581 0-.903.508-.96 1.039zm-1.886.3c.006.518.277 1.145.96 1.145.52 0 .802-.305.915-.745h.356c-.153.66-.537 1.044-1.27 1.044-.927 0-1.316-.71-1.316-1.541 0-.768.39-1.541 1.315-1.541.938 0 1.31.818 1.282 1.637h-2.242m4.9-.3c-.016-.536-.35-1.038-.925-1.038-.582 0-.904.508-.96 1.039zm-1.885.3c.005.52.276 1.146.96 1.146.519 0 .801-.305.914-.745h.356c-.152.66-.536 1.044-1.27 1.044-.927 0-1.316-.71-1.316-1.541 0-.768.39-1.541 1.316-1.541.937 0 1.31.818 1.282 1.637h-2.242m4.183-1.338c-.785 0-1.022.581-1.022 1.242 0 .604.265 1.242 1.022 1.242.677 0 .954-.638.954-1.242s-.277-1.242-.954-1.242zm-1.378-.215h.328v.553h.01c.164-.395.571-.637 1.04-.637.886 0 1.31.717 1.31 1.541s-.424 1.541-1.31 1.541c-.435 0-.859-.22-1.011-.637h-.011v1.632h-.356v-3.993m4.984 0h.355V33.9h-.355Zm0-1.118h.355v.57h-.355v-.57m1.688 1.118h.593v.3h-.593v1.965c0 .231.034.366.288.383.101 0 .203-.005.305-.017v.306c-.108 0-.21.01-.317.01-.474 0-.638-.158-.632-.654v-1.994h-.508v-.299h.508v-.875h.356v.875m-13.557 6.853c-.017-.44-.355-.638-.762-.638-.316 0-.689.124-.689.502 0 .316.362.43.604.492l.475.107c.406.062.83.299.83.807 0 .633-.627.875-1.17.875-.677 0-1.14-.316-1.196-1.027h.355c.029.48.385.728.859.728.333 0 .796-.147.796-.553 0-.339-.316-.452-.638-.531l-.458-.102c-.463-.123-.813-.282-.813-.779 0-.593.582-.818 1.096-.818.581 0 1.044.304 1.067.937h-.356m1.06-.853h.357V39.9h-.356Zm0-1.118h.357v.57h-.356v-.57m1.123 1.118h.327v.491h.018c.186-.35.49-.575.954-.575.384 0 .728.186.835.57.175-.384.543-.57.927-.57.638 0 .965.333.965 1.021V39.9h-.356v-1.96c0-.48-.18-.74-.689-.74-.615 0-.79.509-.79 1.051V39.9H29v-1.977c.006-.395-.158-.722-.61-.722-.615 0-.863.463-.87 1.073v1.626h-.355v-2.914m6.165.214c-.785 0-1.023.583-1.023 1.243 0 .604.266 1.242 1.023 1.242.677 0 .954-.638.954-1.242s-.277-1.242-.954-1.242zm-1.378-.214h.327v.554h.012c.163-.396.57-.638 1.039-.638.886 0 1.31.717 1.31 1.541s-.424 1.541-1.31 1.541c-.435 0-.859-.22-1.011-.637h-.012v1.631h-.355v-3.992m3.33-1.118h.356v4.032h-.356v-4.032m3.218 2.372c-.017-.537-.35-1.04-.926-1.04-.582 0-.903.509-.96 1.04zm-1.886.299c.005.52.276 1.146.96 1.146.52 0 .802-.305.915-.745h.355c-.152.66-.536 1.044-1.27 1.044-.927 0-1.316-.71-1.316-1.541 0-.768.39-1.541 1.316-1.541.937 0 1.31.818 1.281 1.637h-2.241"/><path stroke-miterlimit="10" stroke-width=".52916" stroke="#fff" fill="none" d="M30.95 19.534a3.528 3.528 0 0 0-3.524 3.524 3.528 3.528 0 0 0 3.523 3.523 3.528 3.528 0 0 0 3.524-3.523 3.528 3.528 0 0 0-3.524-3.524"/></g></svg>